<svg width="20" height="20" viewBox="0 0 20 20" fill="none" xmlns="http://www.w3.org/2000/svg">
<path d="M11 8C11 7.44772 11.4477 7 12 7H13C13.5523 7 14 6.55229 14 6C14 5.44772 13.5523 5 13 5H12C10.3431 5 9 6.34315 9 8V10H8C7.44772 10 7 10.4477 7 11C7 11.5523 7.44771 12 8 12H9V18C9 18.5523 9.4477 19 10 19C10.5523 19 11 18.5523 11 18V12H13C13.5523 12 14 11.5523 14 11C14 10.4477 13.5523 10 13 10H11V8Z" fill="#777E91"/>
<path fill-rule="evenodd" clip-rule="evenodd" d="M16 2H4C2.89543 2 2 2.89543 2 4V16C2 17.1046 2.89543 18 4 18H16C17.1046 18 18 17.1046 18 16V4C18 2.89543 17.1046 2 16 2ZM4 0C1.79086 0 0 1.79086 0 4V16C0 18.2091 1.79086 20 4 20H16C18.2091 20 20 18.2091 20 16V4C20 1.79086 18.2091 0 16 0H4Z" fill="#777E91"/>
</svg>
