<svg width="24" height="24" viewBox="0 0 24 24" fill="none" xmlns="http://www.w3.org/2000/svg">
<path fill-rule="evenodd" clip-rule="evenodd" d="M21.846 11.8274C21.8673 11.8954 21.8886 11.9635 21.9028 12.0342C21.9648 12.3472 21.9998 12.6692 21.9998 13.0002C21.9998 13.3082 21.9638 13.6112 21.9078 13.9102C21.8954 13.9784 21.8788 14.0437 21.8621 14.1091C21.8545 14.1387 21.847 14.1683 21.8398 14.1982C21.7898 14.3972 21.7308 14.5922 21.6578 14.7832C21.6198 14.8822 21.5808 14.9792 21.5368 15.0752C21.4498 15.2652 21.3488 15.4472 21.2378 15.6262C21.2206 15.654 21.2041 15.6822 21.1877 15.7103C21.1604 15.7573 21.1331 15.8042 21.1018 15.8492C21.0927 15.8622 21.0849 15.8757 21.0772 15.889C21.0689 15.9034 21.0607 15.9177 21.0508 15.9312C21.0431 15.9423 21.0323 15.9494 21.0217 15.9563C21.0131 15.962 21.0045 15.9676 20.9978 15.9752C20.0858 17.1972 18.6418 18.0002 16.9998 18.0002H13.9998V16.7332C14.3008 16.9072 14.6428 17.0002 14.9998 17.0002C15.5338 17.0002 16.0358 16.7922 16.4138 16.4142C17.1938 15.6352 17.1938 14.3652 16.4138 13.5862L13.4138 10.5862C13.0378 10.2092 12.5358 10.0012 12.0018 10.0012C11.4828 10.0012 10.9898 10.1982 10.6138 10.5572L7.6108 13.4572C6.8178 14.2232 6.7958 15.4922 7.5618 16.2852C7.9378 16.6742 8.4618 16.8972 9.0018 16.8972C9.3568 16.8972 9.6988 16.8042 9.9998 16.6302V18.0002H6.9998C5.3578 18.0002 3.9138 17.1972 3.0028 15.9752C2.99579 15.9678 2.98725 15.9623 2.97868 15.9567C2.96769 15.9496 2.95667 15.9425 2.9488 15.9312C2.93823 15.9168 2.92951 15.9014 2.92075 15.8859C2.91378 15.8736 2.90678 15.8612 2.8988 15.8492C2.86688 15.8033 2.83863 15.7553 2.81041 15.7073C2.79442 15.6802 2.77844 15.653 2.7618 15.6262C2.6518 15.4472 2.5498 15.2652 2.4628 15.0752C2.42022 14.9823 2.38325 14.8885 2.34556 14.7928L2.3418 14.7832C2.2698 14.5922 2.2098 14.3972 2.1608 14.1982C2.15448 14.1729 2.14794 14.1478 2.14142 14.1228C2.12319 14.0528 2.10506 13.9831 2.0918 13.9102C2.0368 13.6112 1.9998 13.3082 1.9998 13.0002C1.9998 12.6692 2.0358 12.3472 2.0968 12.0342C2.11138 11.9614 2.13358 11.8913 2.15578 11.8213C2.16861 11.7808 2.18144 11.7403 2.1928 11.6992C2.19698 11.6839 2.20115 11.6685 2.20532 11.6532C2.25299 11.4774 2.30067 11.3017 2.3678 11.1352C2.40402 11.0447 2.44849 10.96 2.4931 10.875C2.51253 10.8379 2.53199 10.8009 2.5508 10.7632C2.5572 10.7505 2.56358 10.7378 2.56995 10.7251C2.64023 10.5852 2.70945 10.4474 2.7938 10.3162C2.85757 10.2153 2.92981 10.1223 3.00211 10.0291C3.01938 10.0069 3.03665 9.98461 3.0538 9.96224L3.05735 9.95769C3.15414 9.83323 3.25012 9.70983 3.3578 9.59424C3.45428 9.4902 3.55791 9.39689 3.66278 9.30247C3.66878 9.29707 3.67479 9.29166 3.6808 9.28624C3.7988 9.18024 3.9188 9.07824 4.0468 8.98424C4.1658 8.89624 4.2878 8.81624 4.4148 8.74024C4.5548 8.65424 4.6978 8.57724 4.8458 8.50624C4.9758 8.44324 5.1058 8.38624 5.2418 8.33524C5.4038 8.27324 5.5708 8.22424 5.7408 8.18024C5.8758 8.14424 6.0078 8.10924 6.1478 8.08624C6.17422 8.0814 6.19987 8.07442 6.22551 8.06745C6.25809 8.05858 6.29067 8.04972 6.3248 8.04524C7.1458 5.66124 9.4198 4.00024 11.9998 4.00024C14.5808 4.00024 16.8548 5.66124 17.6748 8.04524C17.709 8.04973 17.742 8.05862 17.7749 8.0675C17.8007 8.07446 17.8264 8.08141 17.8528 8.08624C17.9918 8.10924 18.1248 8.14424 18.2588 8.18024C18.4288 8.22424 18.5958 8.27324 18.7578 8.33524C18.8938 8.38624 19.0248 8.44324 19.1538 8.50624C19.3018 8.57724 19.4448 8.65424 19.5848 8.74024C19.7118 8.81624 19.8348 8.89624 19.9538 8.98424C20.0808 9.07824 20.2008 9.18024 20.3188 9.28624C20.4308 9.38624 20.5398 9.48424 20.6428 9.59424C20.7518 9.71124 20.8488 9.83624 20.9458 9.96224C20.9585 9.9786 20.9712 9.99489 20.9839 10.0112C21.0612 10.1103 21.1381 10.2089 21.2068 10.3162C21.2899 10.4468 21.3588 10.5841 21.4288 10.7235C21.4355 10.7367 21.4421 10.75 21.4488 10.7632C21.4676 10.8009 21.4871 10.8379 21.5065 10.875C21.5511 10.96 21.5956 11.0447 21.6318 11.1352C21.7001 11.3022 21.7479 11.4785 21.7957 11.6548C21.7997 11.6696 21.8038 11.6844 21.8078 11.6992C21.8193 11.7423 21.8327 11.7848 21.846 11.8274ZM11.305 11.28C11.699 10.904 12.322 10.907 12.707 11.293L15.707 14.293C16.098 14.684 16.098 15.316 15.707 15.707C15.512 15.902 15.256 16 15 16C14.744 16 14.488 15.902 14.293 15.707L13 14.414V20C13 20.553 12.552 21 12 21C11.448 21 11 20.553 11 20V14.356L9.695 15.616C9.298 16.001 8.665 15.988 8.281 15.591C7.897 15.193 7.908 14.561 8.305 14.177L11.305 11.28Z" fill="white"/>
</svg>
