<svg width="48" height="48" viewBox="0 0 48 48" fill="none" xmlns="http://www.w3.org/2000/svg">
<path d="M31.7695 23.6453C31.039 22.7923 30.7071 22.0531 30.7071 20.7972V20.3701C30.7071 18.7335 30.3304 17.6791 29.5115 16.6246C28.2493 14.987 26.1244 14 24.0442 14H23.9558C21.9194 14 19.8611 14.9417 18.577 16.5128C17.7133 17.5884 17.2929 18.6882 17.2929 20.3701V20.7972C17.2929 22.0531 16.9828 22.7923 16.2305 23.6453C15.6769 24.2738 15.5 25.0815 15.5 25.9557C15.5 26.8309 15.7872 27.6598 16.3637 28.3336C17.116 29.1413 18.1785 29.6569 19.2638 29.7466C20.835 29.9258 22.4063 29.9933 24.0005 29.9933C25.5937 29.9933 27.165 29.8805 28.7372 29.7466C29.8215 29.6569 30.884 29.1413 31.6363 28.3336C32.2118 27.6598 32.5 26.8309 32.5 25.9557C32.5 25.0815 32.3231 24.2738 31.7695 23.6453Z" fill="#A5B4CB"/>
<path d="M26.0087 31.2283C25.5088 31.1215 22.4626 31.1215 21.9627 31.2283C21.5353 31.327 21.0732 31.5566 21.0732 32.0602C21.098 32.5406 21.3793 32.9646 21.7689 33.2335L21.7679 33.2345C22.2718 33.6273 22.8631 33.877 23.4823 33.9667C23.8123 34.012 24.1482 34.01 24.4901 33.9667C25.1083 33.877 25.6996 33.6273 26.2035 33.2345L26.2025 33.2335C26.5921 32.9646 26.8734 32.5406 26.8982 32.0602C26.8982 31.5566 26.4361 31.327 26.0087 31.2283Z" fill="#E5EAF1"/>
<rect x="25" y="11" width="12" height="12" rx="6" fill="#FF754C"/>
<rect x="25" y="11" width="12" height="12" rx="6" stroke="white" stroke-width="2"/>
</svg>
