<svg width="48" height="48" viewBox="0 0 48 48" fill="none" xmlns="http://www.w3.org/2000/svg">
<path d="M14 24.97V18.99C14 16.23 16.24 14 19 14H29C31.76 14 34 16.23 34 18.99V25.97C34 28.72 31.76 30.95 29 30.95H27.5C27.19 30.95 26.89 31.1 26.7 31.35L25.2 33.34C24.54 34.22 23.46 34.22 22.8 33.34L21.3 31.35C21.14 31.13 20.78 30.95 20.5 30.95H19C16.24 30.95 14 28.72 14 25.97V24.97Z" fill="#E5EAF1"/>
<path d="M29 20.75H19C18.59 20.75 18.25 20.41 18.25 20C18.25 19.59 18.59 19.25 19 19.25H29C29.41 19.25 29.75 19.59 29.75 20C29.75 20.41 29.41 20.75 29 20.75Z" fill="#A5B4CB"/>
<path d="M25 25.75H19C18.59 25.75 18.25 25.41 18.25 25C18.25 24.59 18.59 24.25 19 24.25H25C25.41 24.25 25.75 24.59 25.75 25C25.75 25.41 25.41 25.75 25 25.75Z" fill="#A5B4CB"/>
<rect x="25" y="11" width="12" height="12" rx="6" fill="#FF754C"/>
<rect x="25" y="11" width="12" height="12" rx="6" stroke="white" stroke-width="2"/>
</svg>
